<svg version="1.1" id="Слой_1" xmlns="http://www.w3.org/2000/svg" x="0" y="0" viewBox="0 0 997 263" xml:space="preserve"><style>.st1{fill:#e8e8e8}</style><path class="st1" d="M151.4 171.7V208H.2V12.7h147.6V49H45.1v42.4h90.7v35.2H45.1v45.2h106.3z"/><path class="st1" d="M258.8 208l-32.9-46-34 46h-47.4l57.8-75.6-55.8-74.5h48.8l31.8 43.8 32.6-43.8H306l-55.8 73.4 58 76.7h-49.4z"/><path class="st1" d="M294.5 132.9c0-45.2 34.9-77.3 83.7-77.3 31.5 0 56.4 13.7 67.2 38.2L411.7 112c-8.1-14.2-20.1-20.6-33.8-20.6-22 0-39.3 15.3-39.3 41.6s17.3 41.6 39.3 41.6c13.7 0 25.7-6.1 33.8-20.6l33.8 18.4c-10.9 24-35.7 37.9-67.2 37.9-48.9-.1-83.8-32.2-83.8-77.4zm309.4-10.8V208h-43.5v-79.2c0-24.3-11.2-35.4-30.4-35.4-20.9 0-36 12.8-36 40.5V208h-43.5V1H494v72.5c11.7-11.7 28.5-17.9 47.7-17.9 35.4.1 62.2 20.7 62.2 66.5zm153.2.2V208h-40.7v-18.7c-8.1 13.7-23.7 20.9-45.8 20.9-35.2 0-56.1-19.5-56.1-45.5 0-26.5 18.7-44.9 64.5-44.9h34.6c0-18.7-11.2-29.6-34.6-29.6-15.9 0-32.4 5.3-43.2 14l-15.6-30.4c16.5-11.7 40.7-18.1 64.7-18.1 45.7 0 72.2 21.2 72.2 66.6zm-43.5 38.3v-15.3h-29.9c-20.4 0-26.8 7.5-26.8 17.6 0 10.9 9.2 18.1 24.6 18.1 14.5-.1 27-6.8 32.1-20.4zm217.3-38.5V208h-43.5v-79.2c0-24.3-11.2-35.4-30.4-35.4-20.9 0-36 12.8-36 40.5V208h-43.5V57.9H819v17.6c11.7-12.8 29.3-19.8 49.7-19.8 35.4 0 62.2 20.6 62.2 66.4zm176.9-64.2v125c0 55.8-30.1 81.5-84.3 81.5-28.5 0-56.1-7-73.7-20.6l17.3-31.2c12.8 10.3 33.8 17 53 17 30.7 0 44.1-14 44.1-41v-6.4c-11.4 12.6-27.9 18.7-47.4 18.7-41.6 0-75.1-28.7-75.1-72.5s33.5-72.5 75.1-72.5c20.9 0 38.2 7 49.7 21.5V57.9h41.3zm-43 70.3c0-22-16.5-36.8-39.3-36.8-22.9 0-39.6 14.8-39.6 36.8 0 22 16.7 36.8 39.6 36.8 22.8 0 39.3-14.8 39.3-36.8zm210.7 17h-113.6c4.2 18.7 20.1 30.1 43 30.1 15.9 0 27.3-4.7 37.7-14.5l23.2 25.1c-14 15.9-34.9 24.3-61.9 24.3-51.9 0-85.7-32.6-85.7-77.3 0-44.9 34.3-77.3 80.1-77.3 44.1 0 78.1 29.6 78.1 77.8-.1 3.5-.7 8.2-.9 11.8zm-114.2-25.4h73.9c-3.1-19-17.3-31.2-36.8-31.2-19.8 0-34 12-37.1 31.2z"/></svg>