<?xml version="1.0" encoding="utf-8"?>
<!-- Generator: Adobe Illustrator 24.0.1, SVG Export Plug-In . SVG Version: 6.00 Build 0)  -->
<svg version="1.1" id="Слой_1" xmlns="http://www.w3.org/2000/svg" xmlns:xlink="http://www.w3.org/1999/xlink" x="0px" y="0px"
	 viewBox="0 0 997 263" style="enable-background:new 0 0 997 263;" xml:space="preserve">
<style type="text/css">
	.st0{enable-background:new    ;}
	.st1{fill:#E8E8E8;}
</style>
<g class="st0">
	<path class="st1" d="M151.4,171.7V208H0.2V12.7h147.6V49H45.1v42.4h90.7v35.2H45.1v45.2H151.4z"/>
	<path class="st1" d="M258.8,208l-32.9-46l-34,46h-47.4l57.8-75.6l-55.8-74.5h48.8l31.8,43.8l32.6-43.8h46.3l-55.8,73.4l58,76.7
		H258.8z"/>
	<path class="st1" d="M294.5,132.9c0-45.2,34.9-77.3,83.7-77.3c31.5,0,56.4,13.7,67.2,38.2L411.7,112c-8.1-14.2-20.1-20.6-33.8-20.6
		c-22,0-39.3,15.3-39.3,41.6s17.3,41.6,39.3,41.6c13.7,0,25.7-6.1,33.8-20.6l33.8,18.4c-10.9,24-35.7,37.9-67.2,37.9
		C329.4,210.2,294.5,178.1,294.5,132.9z"/>
	<path class="st1" d="M603.9,122.1V208h-43.5v-79.2c0-24.3-11.2-35.4-30.4-35.4c-20.9,0-36,12.8-36,40.5V208h-43.5V1H494v72.5
		c11.7-11.7,28.5-17.9,47.7-17.9C577.1,55.7,603.9,76.3,603.9,122.1z"/>
	<path class="st1" d="M757.1,122.3V208h-40.7v-18.7c-8.1,13.7-23.7,20.9-45.8,20.9c-35.2,0-56.1-19.5-56.1-45.5
		c0-26.5,18.7-44.9,64.5-44.9h34.6c0-18.7-11.2-29.6-34.6-29.6c-15.9,0-32.4,5.3-43.2,14l-15.6-30.4c16.5-11.7,40.7-18.1,64.7-18.1
		C730.6,55.7,757.1,76.9,757.1,122.3z M713.6,160.6v-15.3h-29.9c-20.4,0-26.8,7.5-26.8,17.6c0,10.9,9.2,18.1,24.6,18.1
		C696,180.9,708.5,174.2,713.6,160.6z"/>
	<path class="st1" d="M930.9,122.1V208h-43.5v-79.2c0-24.3-11.2-35.4-30.4-35.4c-20.9,0-36,12.8-36,40.5V208h-43.5V57.9H819v17.6
		c11.7-12.8,29.3-19.8,49.7-19.8C904.1,55.7,930.9,76.3,930.9,122.1z"/>
	<path class="st1" d="M1107.8,57.9v125c0,55.8-30.1,81.5-84.3,81.5c-28.5,0-56.1-7-73.7-20.6l17.3-31.2c12.8,10.3,33.8,17,53,17
		c30.7,0,44.1-14,44.1-41v-6.4c-11.4,12.6-27.9,18.7-47.4,18.7c-41.6,0-75.1-28.7-75.1-72.5s33.5-72.5,75.1-72.5
		c20.9,0,38.2,7,49.7,21.5V57.9H1107.8z M1064.8,128.2c0-22-16.5-36.8-39.3-36.8c-22.9,0-39.6,14.8-39.6,36.8
		c0,22,16.7,36.8,39.6,36.8C1048.3,165,1064.8,150.2,1064.8,128.2z"/>
	<path class="st1" d="M1275.5,145.2h-113.6c4.2,18.7,20.1,30.1,43,30.1c15.9,0,27.3-4.7,37.7-14.5l23.2,25.1
		c-14,15.9-34.9,24.3-61.9,24.3c-51.9,0-85.7-32.6-85.7-77.3c0-44.9,34.3-77.3,80.1-77.3c44.1,0,78.1,29.6,78.1,77.8
		C1276.3,136.9,1275.7,141.6,1275.5,145.2z M1161.3,119.8h73.9c-3.1-19-17.3-31.2-36.8-31.2C1178.6,88.6,1164.4,100.6,1161.3,119.8z
		"/>
</g>
</svg>
